<?xml version="1.0" encoding="iso-8859-1"?>
<!-- Generator: Adobe Illustrator 19.0.0, SVG Export Plug-In . SVG Version: 6.00 Build 0)  -->
<svg version="1.1" id="Capa_1" xmlns="http://www.w3.org/2000/svg" xmlns:xlink="http://www.w3.org/1999/xlink" x="0px" y="0px"
	 viewBox="0 0 512 512" style="enable-background:new 0 0 512 512;" xml:space="preserve">
<g>
	<g>
		<path d="M412.211,0H301v15c0,24.814-20.186,45-45,45c-24.814,0-45-20.186-45-45V0H99.789L0,98.789V241h91v271h330V241h91V98.789
			L412.211,0z M151,301h30v30h-30V301z M211,421h-60v-60h30v30h30V421z M211,241h-30v30h-30v-60h60V241z M271,421h-30v-30h30V421z
			 M271,241h-30v-30h30V241z M361,421h-60v-30h30v-30h30V421z M361,331h-30v-30h30V331z M361,271h-30v-30h-30v-30h60V271z"/>
	</g>
</g>
<g>
</g>
<g>
</g>
<g>
</g>
<g>
</g>
<g>
</g>
<g>
</g>
<g>
</g>
<g>
</g>
<g>
</g>
<g>
</g>
<g>
</g>
<g>
</g>
<g>
</g>
<g>
</g>
<g>
</g>
</svg>
